HIERARCHY
ROOT Hips
{
	OFFSET 54.170898 -6.314314 86.598000
	CHANNELS 6 Xposition Yposition Zposition Xrotation Yrotation Zrotation
	JOINT spine
	{
		OFFSET 0.000000 -0.393701 6.846367
		CHANNELS 3 Xrotation Yrotation Zrotation
		JOINT spine1
		{
			OFFSET 0.000000 -0.000001 9.496208
			CHANNELS 3 Xrotation Yrotation Zrotation
			JOINT spine2
			{
				OFFSET 0.000000 -0.000001 9.099091
				CHANNELS 3 Xrotation Yrotation Zrotation
				JOINT Neck
				{
					OFFSET 0.000000 -1.113784 23.361198
					CHANNELS 3 Xrotation Yrotation Zrotation
					JOINT Head
					{
						OFFSET 0.000000 -0.000001 7.058014
						CHANNELS 3 Xrotation Yrotation Zrotation
						End Site
						{
							OFFSET 0.000000 5.634188 17.084396
						}
					}
				}
				JOINT RightShoulder
				{
					OFFSET -3.831360 0.533489 9.826309
					CHANNELS 3 Xrotation Yrotation Zrotation
					JOINT RightArm
					{
						OFFSET 0.000000 -0.000002 12.888100
						CHANNELS 3 Xrotation Yrotation Zrotation
						JOINT RightArmRoll
						{
							OFFSET 0.000000 -0.000001 6.506165
							CHANNELS 3 Xrotation Yrotation Zrotation
							JOINT RightForeArm
							{
								OFFSET 0.000000 -0.000003 18.950104
								CHANNELS 3 Xrotation Yrotation Zrotation
								JOINT RightForeArmRoll
								{
									OFFSET 0.000000 -0.000001 7.300934
									CHANNELS 3 Xrotation Yrotation Zrotation
									JOINT RightHand
									{
										OFFSET 0.000000 -0.000002 14.651398
										CHANNELS 3 Xrotation Yrotation Zrotation
										End Site
										{
											OFFSET 0.000000 0.000000 0.100006
										}
									}
								}
							}
						}
					}
				}
				JOINT LeftShoulder
				{
					OFFSET 3.831360 0.533489 9.826309
					CHANNELS 3 Xrotation Yrotation Zrotation
					JOINT LeftArm
					{
						OFFSET 0.000000 -0.000002 12.888100
						CHANNELS 3 Xrotation Yrotation Zrotation
						JOINT LeftArmRoll
						{
							OFFSET 0.000000 -0.000001 6.506165
							CHANNELS 3 Xrotation Yrotation Zrotation
							JOINT LeftForeArm
							{
								OFFSET 0.000000 -0.000003 18.950104
								CHANNELS 3 Xrotation Yrotation Zrotation
								JOINT LeftForeArmRoll
								{
									OFFSET 0.000000 -0.000001 7.300934
									CHANNELS 3 Xrotation Yrotation Zrotation
									JOINT LeftHand
									{
										OFFSET 0.000000 -0.000002 14.651398
										CHANNELS 3 Xrotation Yrotation Zrotation
										End Site
										{
											OFFSET 0.000000 0.000000 0.100006
										}
									}
								}
							}
						}
					}
				}
			}
		}
	}
	JOINT RightUpLeg
	{
		OFFSET -6.068371 0.933477 -1.112778
		CHANNELS 3 Xrotation Yrotation Zrotation
		JOINT RightUpLegRoll
		{
			OFFSET 0.000000 -0.000003 17.179604
			CHANNELS 3 Xrotation Yrotation Zrotation
			JOINT RightLeg
			{
				OFFSET 0.000000 0.000003 -21.274300
				CHANNELS 3 Xrotation Yrotation Zrotation
				JOINT RightLegRoll
				{
					OFFSET 0.000000 -0.000003 21.343903
					CHANNELS 3 Xrotation Yrotation Zrotation
					JOINT RightFoot
					{
						OFFSET 0.000000 -0.000003 17.765198
						CHANNELS 3 Xrotation Yrotation Zrotation
						JOINT RightToeBase
						{
							OFFSET 0.000000 -0.000002 14.850807
							CHANNELS 3 Xrotation Yrotation Zrotation
							End Site
							{
								OFFSET 0.006294 0.829004 7.192123
							}
						}
					}
				}
			}
		}
	}
	JOINT LeftUpLeg
	{
		OFFSET 6.068371 0.933477 -1.112778
		CHANNELS 3 Xrotation Yrotation Zrotation
		JOINT LeftUpLegRoll
		{
			OFFSET 0.000000 -0.000003 17.179703
			CHANNELS 3 Xrotation Yrotation Zrotation
			JOINT LeftLeg
			{
				OFFSET 0.000000 -0.000003 21.274200
				CHANNELS 3 Xrotation Yrotation Zrotation
				JOINT LeftLegRoll
				{
					OFFSET 0.000000 -0.000004 21.541206
					CHANNELS 3 Xrotation Yrotation Zrotation
					JOINT LeftFoot
					{
						OFFSET 0.000000 -0.000003 17.567902
						CHANNELS 3 Xrotation Yrotation Zrotation
						JOINT LeftToeBase
						{
							OFFSET 0.000000 -0.000002 14.850800
							CHANNELS 3 Xrotation Yrotation Zrotation
							End Site
							{
								OFFSET -0.028210 0.829003 7.192139
							}
						}
					}
				}
			}
		}
	}
}
MOTION
Frames: 12
Frame Time: 0.041667
57.214798 -16.563213 80.432503 11.049863 0.193458 -0.398117 -2.245705 -1.341579 0.742595 -0.471693 -2.717518 1.445726 1.173924 -2.700004 1.478187 -11.118329 20.724638 -3.409201 2.611891 -17.841427 -7.454468 -10.020197 -52.165993 -11.388761 -45.702162 -118.547509 -51.747053 -0.000000 0.000001 -0.000005 18.678846 -20.236461 5.210999 0.000001 -0.000000 -3.011780 -5.000240 -7.998782 0.000151 -38.227411 74.220012 43.293076 -77.606283 116.243741 83.462268 0.000004 -0.000004 0.000008 32.849054 25.415660 -8.812654 -0.000015 -0.000015 3.005440 -5.000187 7.998734 -0.000186 -36.521500 -174.705475 1.967033 -179.999991 0.000005 -0.737997 128.357614 -6.770894 -3.333514 -0.000006 -0.000000 0.713543 90.462236 6.835956 -0.477011 25.457741 -7.352022 0.000114 -34.868218 177.555098 -2.194092 -0.000007 -0.000004 -0.810481 -51.245618 7.330939 3.268293 0.000000 -0.000001 -0.581054 92.355851 -7.378939 4.255932 25.446585 7.360949 -0.001944 
57.218597 -16.549519 80.361397 10.992378 0.215634 -0.386268 -2.224592 -1.343527 0.760691 -0.429002 -2.720504 1.482277 1.216614 -2.702553 1.514773 -11.179598 20.629357 -3.458188 2.615949 -17.736861 -7.499299 -10.010067 -52.132921 -11.374345 -45.639399 -118.692282 -51.813777 -0.000001 0.000000 -0.000005 18.831417 -20.211498 5.240689 -0.000002 0.000000 -3.011771 -5.000240 -7.998784 0.000152 -37.644021 74.107621 42.672768 -76.914357 116.536811 82.711774 0.000001 -0.000002 0.000008 32.697362 25.438411 -8.760034 -0.000015 -0.000015 3.005440 -5.000190 7.998735 -0.000186 -36.538213 -174.759870 1.964785 -179.999991 0.000006 -0.743994 128.227786 -6.735856 -3.330299 -0.000007 0.000001 0.724271 90.522075 6.833273 -0.477467 25.457754 -7.352084 0.000124 -34.916494 177.501549 -2.280797 -0.000008 -0.000004 -0.817932 -51.402450 7.256428 3.274245 -0.000001 -0.000000 -0.608183 92.404052 -7.364710 4.193741 25.442846 7.360956 -0.001154 
57.181797 -16.515816 80.368301 10.935794 0.238841 -0.375211 -2.204139 -1.345264 0.778862 -0.387622 -2.722958 1.518985 1.257982 -2.704570 1.551499 -11.240600 20.525333 -3.508701 2.626594 -17.627012 -7.542410 -10.003218 -52.091049 -11.363476 -45.557157 -118.840852 -51.885768 0.000000 -0.000000 -0.000005 19.006458 -20.183713 5.276885 -0.000003 0.000000 -3.011770 -5.000240 -7.998782 0.000151 -37.032186 73.979206 42.022712 -76.195698 116.822941 81.966238 0.000002 -0.000001 0.000008 32.599629 25.436159 -8.716618 -0.000016 -0.000015 3.005439 -5.000191 7.998735 -0.000187 -36.548554 -174.815454 1.962999 -179.999991 0.000005 -0.750005 128.113462 -6.701907 -3.325604 -0.000004 -0.000000 0.734754 90.573458 6.830969 -0.478024 25.457754 -7.352149 0.000125 -34.960060 177.449558 -2.368072 -0.000004 -0.000004 -0.826279 -51.546232 7.176279 3.277882 0.000004 -0.000001 -0.636628 92.444152 -7.350629 4.128022 25.439514 7.360974 -0.000390 
57.181190 -16.502516 80.301498 10.880414 0.262262 -0.364808 -2.184474 -1.346671 0.796747 -0.347841 -2.724651 1.555114 1.297756 -2.705818 1.587654 -11.301533 20.415314 -3.559473 2.644427 -17.514574 -7.582990 -9.998368 -52.040362 -11.354519 -45.460359 -118.992755 -51.967928 -0.000002 -0.000001 -0.000003 19.202358 -20.152456 5.319288 -0.000003 0.000000 -3.011769 -5.000243 -7.998783 0.000149 -36.403132 73.836271 41.354719 -75.462689 117.102309 81.238495 0.000002 -0.000003 0.000008 32.553016 25.410833 -8.682557 -0.000014 -0.000015 3.005439 -5.000185 7.998735 -0.000187 -36.553164 -174.869823 1.961436 -179.999991 0.000005 -0.756001 128.014452 -6.669641 -3.321228 -0.000006 0.000000 0.744887 90.616591 6.829050 -0.478892 25.457759 -7.352213 0.000125 -34.998927 177.398290 -2.454662 -0.000007 -0.000004 -0.835169 -51.676436 7.093225 3.279711 0.000001 -0.000001 -0.665619 92.475857 -7.336778 4.059762 25.436987 7.360990 0.000287 
57.169296 -16.466415 80.323601 10.826734 0.285083 -0.354922 -2.165739 -1.347597 0.813979 -0.309942 -2.725341 1.589952 1.335641 -2.706096 1.622490 -11.362727 20.302148 -3.609167 2.670020 -17.402033 -7.620249 -9.994224 -51.981090 -11.345857 -45.351257 -119.148866 -52.062014 -0.000001 -0.000001 -0.000005 19.417446 -20.117282 5.367610 -0.000001 0.000001 -3.011759 -5.000241 -7.998783 0.000151 -35.767884 73.680577 40.680426 -74.726204 117.374847 80.539904 0.000002 -0.000003 0.000008 32.555195 25.364263 -8.658083 -0.000011 -0.000015 3.005440 -5.000188 7.998733 -0.000187 -36.552314 -174.922210 1.961088 -179.999991 0.000005 -0.761999 127.930099 -6.640227 -3.317874 -0.000005 -0.000000 0.754563 90.651685 6.827615 -0.479972 25.457761 -7.352278 0.000126 -35.032901 177.347733 -2.539902 -0.000004 -0.000004 -0.844247 -51.792884 7.009967 3.280406 -0.000002 -0.000001 -0.694384 92.498998 -7.323577 3.991955 25.435874 7.360996 0.000779 
57.173798 -16.436916 80.255394 10.775159 0.306485 -0.345423 -2.148076 -1.347932 0.830194 -0.274214 -2.724809 1.622784 1.371359 -2.705168 1.655315 -11.424367 20.188478 -3.656505 2.703953 -17.292080 -7.653372 -9.989435 -51.912938 -11.335808 -45.231808 -119.310004 -52.169682 -0.000001 0.000002 -0.000005 19.649911 -20.077660 5.421516 -0.000001 0.000000 -3.011759 -5.000241 -7.998782 0.000149 -35.137116 73.514098 40.011084 -73.997682 117.640118 79.882389 0.000002 -0.000005 0.000008 32.603372 25.298292 -8.643130 -0.000010 -0.000015 3.005439 -5.000190 7.998731 -0.000187 -36.546396 -174.971046 1.962328 -179.999991 0.000005 -0.767995 127.860677 -6.613051 -3.314716 -0.000004 0.000000 0.763675 90.678957 6.826576 -0.481792 25.457759 -7.352329 0.000122 -35.061786 177.297859 -2.623125 -0.000006 -0.000004 -0.853164 -51.894988 6.929101 3.280383 0.000002 -0.000001 -0.722152 92.512966 -7.311311 3.922576 25.436280 7.361017 0.001076 
57.146797 -16.426720 80.286011 10.726175 0.325654 -0.336183 -2.131618 -1.347537 0.845029 -0.240941 -2.722827 1.652874 1.404614 -2.702829 1.685369 -11.486883 20.077136 -3.700114 2.746819 -17.187198 -7.681573 -9.982731 -51.836119 -11.322783 -45.104254 -119.477016 -52.292891 0.000000 0.000000 -0.000005 19.898136 -20.032858 5.480620 -0.000003 0.000000 -3.011750 -5.000243 -7.998782 0.000149 -34.520312 73.338740 39.356745 -73.287821 117.897439 79.277172 0.000003 -0.000002 0.000008 32.694845 25.214866 -8.637672 -0.000011 -0.000016 3.005440 -5.000184 7.998735 -0.000188 -36.535911 -175.014732 1.965532 -179.999991 0.000006 -0.772995 127.805598 -6.588657 -3.310651 -0.000006 -0.000000 0.772117 90.698587 6.826015 -0.484163 25.457770 -7.352393 0.000132 -35.085664 177.248668 -2.703650 -0.000006 -0.000005 -0.861563 -51.982558 6.853376 3.280403 0.000001 -0.000001 -0.748154 92.517822 -7.300126 3.856642 25.438905 7.361031 0.001078 
57.152397 -16.390816 80.230095 10.680094 0.341772 -0.327075 -2.116504 -1.346282 0.858118 -0.210409 -2.719162 1.679498 1.435133 -2.698846 1.711950 -11.550366 19.970862 -3.738701 2.799212 -17.089980 -7.704041 -9.972790 -51.750462 -11.305104 -44.973459 -119.649464 -52.436284 -0.000000 0.000001 -0.000005 20.160538 -19.982548 5.544704 -0.000001 0.000001 -3.011749 -5.000240 -7.998782 0.000150 -33.926219 73.156558 38.726694 -72.606571 118.145539 78.734753 0.000003 -0.000004 0.000008 32.827088 25.115768 -8.641658 -0.000012 -0.000016 3.005439 -5.000189 7.998735 -0.000187 -36.521315 -175.050918 1.970501 -179.999991 0.000005 -0.779006 127.764576 -6.568234 -3.308287 -0.000005 0.000000 0.779783 90.710793 6.825971 -0.487494 25.457768 -7.352448 0.000129 -35.104147 177.200160 -2.780814 -0.000006 -0.000004 -0.869091 -52.054866 6.785413 3.280942 0.000001 -0.000001 -0.771617 92.513109 -7.290309 3.795126 25.443959 7.361058 0.000744 
57.119495 -16.376211 80.214798 10.637406 0.354021 -0.317978 -2.102869 -1.344055 0.869097 -0.182904 -2.713607 1.701940 1.462625 -2.693014 1.734335 -11.615232 19.872300 -3.770895 2.861703 -17.002998 -7.719938 -9.958347 -51.656045 -11.281195 -44.839727 -119.828648 -52.599775 -0.000000 0.000000 -0.000006 20.435173 -19.925955 5.613242 0.000000 0.000001 -3.011748 -5.000242 -7.998783 0.000149 -33.363179 72.969800 38.129808 -71.963686 118.383052 78.265403 0.000003 -0.000001 0.000008 32.997259 25.002930 -8.654913 -0.000012 -0.000017 3.005440 -5.000186 7.998735 -0.000186 -36.502884 -175.079605 1.978813 -179.999991 0.000005 -0.782994 127.737406 -6.551115 -3.305894 -0.000006 0.000000 0.786566 90.715779 6.826347 -0.491787 25.457775 -7.352501 0.000124 -35.117302 177.153100 -2.854517 -0.000007 -0.000004 -0.875396 -52.111792 6.727847 3.282684 -0.000001 -0.000001 -0.791770 92.498431 -7.282205 3.738013 25.452044 7.361077 -0.000001 
57.119698 -16.345615 80.180603 10.598514 0.361583 -0.308768 -2.090861 -1.340707 0.877600 -0.158713 -2.705920 1.719487 1.486803 -2.685117 1.751777 -11.681690 19.784370 -3.795318 2.934898 -16.928742 -7.728455 -9.938164 -51.552898 -11.249507 -44.705354 -120.015508 -52.785153 -0.000001 0.000000 -0.000004 20.720555 -19.862743 5.686007 -0.000001 0.000002 -3.011738 -5.000241 -7.998782 0.000150 -32.838948 72.780829 37.574366 -71.368572 118.608530 77.879053 0.000003 -0.000002 0.000008 33.202779 24.877998 -8.677289 -0.000009 -0.000015 3.005439 -5.000189 7.998735 -0.000187 -36.481120 -175.097609 1.989667 -179.999991 0.000005 -0.786997 127.723909 -6.538506 -3.305066 -0.000006 -0.000000 0.792360 90.713730 6.827266 -0.497170 25.457773 -7.352564 0.000135 -35.124975 177.105890 -2.922943 -0.000006 -0.000004 -0.880124 -52.152633 6.683467 3.286286 -0.000003 -0.000002 -0.807842 92.473719 -7.275905 3.689303 25.463362 7.361099 -0.001185 
57.108196 -16.313515 80.270103 10.563917 0.363644 -0.299328 -2.080605 -1.336119 0.883264 -0.138119 -2.695883 1.731403 1.507391 -2.674946 1.763575 -11.749936 19.709616 -3.810666 3.019398 -16.869883 -7.728711 -9.910975 -51.440917 -11.208439 -44.573251 -120.209950 -52.995373 -0.000001 0.000000 -0.000005 21.014935 -19.792075 5.762499 -0.000002 0.000002 -3.011740 -5.000238 -7.998786 0.000151 -32.360070 72.591899 37.067413 -70.830674 118.819993 77.585717 0.000003 -0.000004 0.000008 33.440715 24.742977 -8.708626 -0.000009 -0.000016 3.005441 -5.000189 7.998735 -0.000187 -36.456264 -175.105724 2.005243 -179.999991 0.000005 -0.790002 127.723704 -6.530979 -3.305663 -0.000005 0.000001 0.797058 90.704892 6.828791 -0.504056 25.457783 -7.352620 0.000130 -35.127021 177.060087 -2.986555 -0.000003 -0.000004 -0.882921 -52.177226 6.654792 3.292273 0.000003 -0.000001 -0.819063 92.438360 -7.271844 3.647968 25.478511 7.361125 -0.002908 
57.097797 -16.284616 80.218803 10.533911 0.359383 -0.289532 -2.072250 -1.330170 0.885724 -0.121411 -2.683275 1.736976 1.524086 -2.662269 1.768998 -11.820395 19.650844 -3.815464 3.115824 -16.828900 -7.719809 -9.875544 -51.320105 -11.156451 -44.446647 -120.412123 -53.233221 -0.000002 0.000001 -0.000005 21.316503 -19.713674 5.842386 0.000000 0.000002 -3.011730 -5.000239 -7.998782 0.000152 -31.933183 72.405524 36.616128 -70.358598 119.015555 77.394540 0.000003 -0.000003 0.000008 33.708609 24.599541 -8.748882 -0.000011 -0.000015 3.005439 -5.000185 7.998732 -0.000188 -36.428978 -175.099986 2.024143 -179.999991 0.000005 -0.792994 127.736668 -6.527867 -3.306901 -0.000005 -0.000000 0.800553 90.689428 6.830871 -0.512251 25.457782 -7.352670 0.000137 -35.123391 177.014092 -3.043559 -0.000008 -0.000004 -0.883435 -52.184964 6.644621 3.301311 -0.000000 -0.000002 -0.824660 92.392345 -7.270217 3.618008 25.497810 7.361160 -0.005208 
